<svg width="24px" height="24px" viewBox="0 0 20 16" fill="#4E565F" xmlns="http://www.w3.org/2000/svg"><path d="m11.677 8.468-.01-.009a4.337 4.337 0 0 1-.131-.13c-.227-.238-.286-.341-.416-.53-.767-1.102-1.253-2.58-1.253-3.682C9.867 2.119 11.461.5 13.427.5s3.56 1.62 3.56 3.617c0 1.324-.7 3.189-1.746 4.295a2.392 2.392 0 0 1-.084.085.724.724 0 0 0 .021 1.064c.333.294.796.613 1.467.942.597.292 1.292.636 1.801 1.003.13.093.256.189.38.287.216.203.362.364.44.482a1.956 1.956 0 0 1-.146 2.333 2.07 2.07 0 0 1-1.197.698c-1.344.258-2.937.373-4.495.373-1.374 0-2.764-.089-3.973-.29a9.254 9.254 0 0 1-.638-.158c-1.1-.296-1.746-1.405-1.441-2.475.108-.38.329-.72.635-.98a7.61 7.61 0 0 1 2.2-1.273c.752-.282 1.21-.64 1.528-1a.733.733 0 0 0-.062-1.035ZM5.06 6.265h2.065a1.008 1.008 0 1 1 0 2.017H5.06v2.125a.994.994 0 0 1-1.988 0V8.282H1.008a1.008 1.008 0 0 1 0-2.017h2.065V4.141a.994.994 0 0 1 1.988 0v2.124Z"></path></svg>