<svg width="22" height="14" viewBox="0 0 22 14" fill="none" xmlns="http://www.w3.org/2000/svg">
<path fill-rule="evenodd" clip-rule="evenodd" d="M11.0508 0C15.908 0 19.2003 3.71804 20.6288 5.73471C21.1722 6.50184 21.1722 7.49816 20.6288 8.26529C19.2003 10.282 15.908 14 11.0508 14C6.21972 14 2.86868 10.3219 1.39045 8.29804C0.81901 7.51566 0.81901 6.48434 1.39045 5.70196C2.86868 3.67808 6.21972 0 11.0508 0ZM16.039 6.99987C16.0389 4.34203 13.8024 2.18747 11.0436 2.18751C8.28473 2.18755 6.04828 4.34217 6.04828 7.00001C6.04818 8.27647 6.57447 9.50067 7.51134 10.4033C8.44821 11.3059 9.71891 11.8129 11.0439 11.8129C13.8027 11.8124 16.0391 9.65771 16.039 6.99987ZM11.044 10.0622C12.7996 10.0622 14.2228 8.69106 14.2228 6.99969C14.2228 5.30831 12.7996 3.93719 11.044 3.93736C9.28841 3.93736 7.86521 5.30838 7.86511 6.99969C7.86511 8.69106 9.28834 10.0622 11.044 10.0622Z" fill="#AEB6BD"/>
</svg>
