<svg width="37" height="36" viewBox="0 0 37 36" fill="none" xmlns="http://www.w3.org/2000/svg" class="yLNNg"><g clip-path="url(#0e2554307a62b8943edd47a3010ec1ac2584825c__a)"><path fill-rule="evenodd" clip-rule="evenodd" d="M30.825 25.55c-1.212.668-2.019.599-2.648 1.004-.533.344-.216 1.08-.606 1.35-.475.329-1.883-.022-3.697.576-1.498.494-2.455 1.918-5.15 1.918-2.701 0-3.631-1.416-5.148-1.918-1.814-.598-3.223-.247-3.698-.575-.386-.267-.073-1.008-.606-1.351-.625-.405-1.435-.332-2.647-1.003-.772-.429-.336-.691-.077-.815 4.396-2.127 5.094-5.411 5.125-5.658.039-.293.081-.529-.247-.826-.313-.29-1.706-1.154-2.092-1.42-.64-.448-.922-.892-.714-1.44.143-.378.498-.521.872-.521.116 0 .236.015.348.038.702.155 1.385.506 1.78.599.053.011.1.019.146.019.208 0 .285-.104.27-.347-.046-.769-.154-2.266-.035-3.663.166-1.922.788-2.88 1.525-3.721.355-.405 2.014-2.161 5.195-2.161 3.188 0 4.844 1.756 5.195 2.16.737.846 1.359 1.8 1.525 3.722.12 1.397.015 2.894-.035 3.663-.016.254.062.347.27.347a.728.728 0 0 0 .147-.02c.393-.096 1.076-.447 1.779-.598a1.77 1.77 0 0 1 .347-.038c.375 0 .73.143.873.52.208.549-.074.997-.714 1.44-.386.27-1.78 1.131-2.092 1.42-.324.302-.282.534-.247.827.03.247.733 3.531 5.125 5.658.267.124.703.386-.07.814Zm1.988-1.065c-.197-.536-.572-.822-1-1.061a4.515 4.515 0 0 0-.216-.116c-.128-.066-.259-.131-.39-.197-1.335-.706-2.374-1.598-3.096-2.655a6.255 6.255 0 0 1-.532-.942c-.062-.178-.058-.278-.016-.367a.626.626 0 0 1 .17-.177c.228-.15.467-.305.625-.41.286-.185.514-.331.657-.432.548-.382.93-.787 1.17-1.242.335-.641.377-1.37.119-2.062-.363-.953-1.262-1.547-2.358-1.547a3.49 3.49 0 0 0-.865.116 19.816 19.816 0 0 0-.062-2.02c-.204-2.384-1.038-3.631-1.91-4.627a7.625 7.625 0 0 0-1.942-1.567c-1.32-.756-2.817-1.138-4.45-1.138-1.629 0-3.122.382-4.446 1.138a7.6 7.6 0 0 0-1.946 1.567c-.872.996-1.705 2.246-1.91 4.628a19.82 19.82 0 0 0-.062 2.018c-.058-.015-.12-.026-.177-.042a3.19 3.19 0 0 0-.687-.073c-1.093 0-1.996.594-2.359 1.547a2.495 2.495 0 0 0 .12 2.062c.24.455.621.86 1.17 1.242.146.1.37.247.656.433.154.1.382.247.602.393a.649.649 0 0 1 .193.193c.046.097.046.197-.02.386a6.136 6.136 0 0 1-.52.923c-.707 1.034-1.718 1.91-3.007 2.609-.684.363-1.394.606-1.695 1.42-.227.618-.077 1.316.498 1.907.19.204.429.382.726.548.702.39 1.304.579 1.775.71.081.023.274.085.36.158.208.182.177.46.458.865.17.25.363.424.525.533.587.405 1.243.428 1.942.455.629.023 1.343.05 2.161.32.34.112.691.328 1.096.58.98.601 2.316 1.423 4.555 1.423 2.238 0 3.585-.826 4.566-1.428.405-.247.752-.463 1.08-.57.815-.271 1.529-.298 2.162-.321.698-.027 1.355-.05 1.941-.456.186-.127.413-.335.599-.652.2-.34.196-.583.386-.745.077-.065.247-.127.335-.154a7.852 7.852 0 0 0 1.799-.718c.316-.174.567-.367.76-.587l.008-.008c.54-.578.675-1.262.452-1.86Z" fill="#000"></path></g><defs><clipPath id="0e2554307a62b8943edd47a3010ec1ac2584825c__a"><path fill="#fff" transform="translate(4.5 4)" d="M0 0h28.475v28H0z"></path></clipPath></defs></svg>