<svg xmlns="http://www.w3.org/2000/svg" xmlns:xlink="http://www.w3.org/1999/xlink" version="1.1" width="256" height="256" viewBox="0 0 256 256" xml:space="preserve">

<defs>
</defs>
<g style="stroke: none; stroke-width: 0; stroke-dasharray: none; stroke-linecap: butt; stroke-linejoin: miter; stroke-miterlimit: 10; fill: none; fill-rule: nonzero; opacity: 1;" transform="translate(1.4065934065934016 1.4065934065934016) scale(2.81 2.81)" >
	<path d="M 44.913 26.682 H 15.231 c -8.28 0 -15.002 -3.611 -15.211 -11.841 C 0.016 14.972 0 15.099 0 15.231 v 31.303 c 8.265 10.233 20.908 16.784 35.087 16.784 h 0.682 c 8.28 0 12.002 3.611 12.211 11.841 c 0.003 -0.131 0.02 -0.258 0.02 -0.39 C 48 83.181 44.181 90 35.769 90 h 39 C 83.181 90 90 83.181 90 74.769 C 90 42.732 69.814 26.682 44.913 26.682 z" style="stroke: none; stroke-width: 1; stroke-dasharray: none; stroke-linecap: butt; stroke-linejoin: miter; stroke-miterlimit: 10; fill: rgb(241,0,0); fill-rule: nonzero; opacity: 1;" transform=" matrix(1 0 0 1 0 0) " stroke-linecap="round" />
	<path d="M 90 74.769 L 90 74.769 c 0 -24.901 -20.186 -45.087 -45.087 -45.087 H 15.231 c -8.28 0 -15.002 -6.611 -15.211 -14.841 C 0.016 14.972 0 15.099 0 15.231 C 0 6.819 6.819 0 15.231 0 h 59.538 C 83.181 0 90 6.819 90 15.231 V 74.769" style="stroke: none; stroke-width: 1; stroke-dasharray: none; stroke-linecap: butt; stroke-linejoin: miter; stroke-miterlimit: 10; fill: rgb(255,0,0); fill-rule: nonzero; opacity: 1;" transform=" matrix(1 0 0 1 0 0) " stroke-linecap="round" />
	<path d="M 0 74.769 V 43.534 c 8.265 10.233 20.908 16.784 35.087 16.784 h 0.682 c 8.28 0 15.002 6.611 15.211 14.841 c 0.003 -0.131 0.02 -0.258 0.02 -0.39 C 51 83.181 44.181 90 35.769 90 H 15.231 C 6.819 90 0 83.181 0 74.769 z" style="stroke: none; stroke-width: 1; stroke-dasharray: none; stroke-linecap: butt; stroke-linejoin: miter; stroke-miterlimit: 10; fill: rgb(228,0,0); fill-rule: nonzero; opacity: 1;" transform=" matrix(1 0 0 1 0 0) " stroke-linecap="round" />
	<path d="M 20.295 14.228 c -0.278 -0.157 -0.544 -0.326 -0.858 -0.508 c 0.314 -0.193 0.604 -0.363 0.882 -0.52 c 1.293 -0.701 2.006 -2.127 1.789 -3.577 c -0.314 -2.381 -3.058 -3.758 -5.137 -2.574 c -2.127 1.221 -4.254 2.417 -6.357 3.674 c -1.668 1.003 -1.91 2.333 -1.644 3.904 c 0.169 0.979 0.822 1.704 1.68 2.2 c 0.302 0.169 0.592 0.338 0.919 0.532 c -0.363 0.217 -0.689 0.411 -1.039 0.592 c -1.547 0.979 -2.079 2.985 -1.209 4.605 c 0.919 1.704 3.046 2.357 4.75 1.438 c 1.837 -1.039 3.674 -2.103 5.499 -3.166 c 0.435 -0.254 0.894 -0.483 1.281 -0.798 C 22.797 18.41 22.507 15.473 20.295 14.228 z M 13.805 18.192 v -5.282 l 4.569 2.635 L 13.805 18.192 z" style="stroke: none; stroke-width: 1; stroke-dasharray: none; stroke-linecap: butt; stroke-linejoin: miter; stroke-miterlimit: 10; fill: rgb(255,255,255); fill-rule: nonzero; opacity: 1;" transform=" matrix(2.81 0 0 2.81 1.4065934065934016 1.4065934065934016) " stroke-linecap="round" />
</g>
</svg>